<svg xmlns="http://www.w3.org/2000/svg" width="900" height="400" viewBox="0 0 900 400">
  <defs><linearGradient id="bg" x1="0" y1="0" x2="900" y2="400"><stop stop-color="#F0FDFA"/><stop offset="1" stop-color="#CCFBF1"/></linearGradient></defs>
  <rect width="900" height="400" rx="32" fill="url(#bg)"/><circle cx="830" cy="20" r="150" fill="#0D9488" opacity=".10"/>
  <rect x="42" y="34" width="194" height="36" rx="18" fill="white" opacity=".92"/><circle cx="64" cy="52" r="6" fill="#0D9488"/><text x="82" y="59" fill="#0F766E" font-size="18" font-weight="800" font-family="Pretendard,Noto Sans KR,Malgun Gothic,sans-serif">생활가전 렌탈</text>
  <text x="42" y="128" fill="#0F172A" font-size="44" font-weight="900" letter-spacing="-2" font-family="Pretendard,Noto Sans KR,Malgun Gothic,sans-serif">80개 렌탈 상품을</text><text x="42" y="182" fill="#0D9488" font-size="44" font-weight="900" letter-spacing="-2" font-family="Pretendard,Noto Sans KR,Malgun Gothic,sans-serif">검색하고 직접 비교</text>
  <text x="44" y="224" fill="#475569" font-size="19" font-weight="600" font-family="Pretendard,Noto Sans KR,Malgun Gothic,sans-serif">정수기부터 생활가전까지 월요금을 한 곳에서 확인하세요</text>
  <rect x="42" y="258" width="164" height="48" rx="16" fill="#0D9488"/><text x="124" y="289" text-anchor="middle" fill="white" font-size="18" font-weight="800" font-family="Pretendard,Noto Sans KR,Malgun Gothic,sans-serif">상품 둘러보기</text>
  <g transform="translate(585 72)"><rect x="0" y="26" width="70" height="218" rx="25" fill="white"/><rect x="16" y="52" width="38" height="90" rx="13" fill="#CCFBF1"/><circle cx="35" cy="205" r="10" fill="#0D9488"/><rect x="86" y="0" width="112" height="244" rx="34" fill="white"/><circle cx="142" cy="112" r="42" fill="#F0FDFA" stroke="#5EEAD4" stroke-width="10"/><circle cx="142" cy="112" r="18" fill="#99F6E4"/><rect x="214" y="42" width="70" height="202" rx="25" fill="white"/><rect x="232" y="70" width="34" height="84" rx="12" fill="#CCFBF1"/></g>
</svg>
