<svg width="1600" height="280" viewBox="0 0 1600 280" fill="none" xmlns="http://www.w3.org/2000/svg">
      <defs>
        <linearGradient id="bg" x1="0" y1="0" x2="1600" y2="280" gradientUnits="userSpaceOnUse"><stop stop-color="#F1FBF6"/><stop offset="1" stop-color="#E7F8EF"/></linearGradient>
        <filter id="shadow" x="-40%" y="-40%" width="180%" height="180%"><feDropShadow dx="0" dy="12" stdDeviation="14" flood-color="#0F172A" flood-opacity="0.12"/></filter>
      </defs>
      <rect width="1600" height="280" rx="28" fill="url(#bg)"/>
  <g transform="translate(0 20)">
      <circle cx="1540" cy="-20" r="190" fill="#16A34A" fill-opacity="0.09"/><circle cx="1390" cy="270" r="210" fill="#16A34A" fill-opacity="0.07"/>
      <rect x="70" y="38" width="190" height="30" rx="15" fill="white" fill-opacity="0.82"/>
      <circle cx="89" cy="53" r="5" fill="#16A34A"/><text x="104" y="59" fill="#16A34A" font-size="15" font-weight="800" font-family="'Pretendard','Noto Sans KR','Malgun Gothic',sans-serif">인터넷 · TV</text>
      <text x="70" y="116" fill="#0F172A" font-size="38" font-weight="900" letter-spacing="-1.8" font-family="'Pretendard','Noto Sans KR','Malgun Gothic',sans-serif">저렴한 요금부터</text>
      <text x="70" y="159" fill="#16A34A" font-size="38" font-weight="900" letter-spacing="-1.8" font-family="'Pretendard','Noto Sans KR','Malgun Gothic',sans-serif">최대 혜택까지 한 번에</text>
      <text x="72" y="199" fill="#475569" font-size="18" font-weight="600" font-family="'Pretendard','Noto Sans KR','Malgun Gothic',sans-serif">통신사별 요금과 지원 혜택을 쉽고 정확하게 비교하세요</text>
      <g transform="translate(1170 28)">
          <rect width="310" height="184" rx="34" fill="white"/>
          <rect x="44" y="112" width="222" height="45" rx="15" fill="#F0FDF4"/>
          <rect x="66" y="122" width="105" height="25" rx="9" fill="#16A34A"/>
          <circle cx="210" cy="135" r="7" fill="#22C55E"/><circle cx="235" cy="135" r="7" fill="#BBF7D0"/>
          <path d="M92 78C126 45 181 45 215 78" stroke="#16A34A" stroke-width="15" stroke-linecap="round"/>
          <path d="M125 103C141 87 166 87 182 103" stroke="#16A34A" stroke-width="15" stroke-linecap="round"/>
          <circle cx="154" cy="124" r="9" fill="#16A34A"/>
        </g>
    
  </g>
</svg>
