<svg width="900" height="700" viewBox="0 0 900 700" fill="none" xmlns="http://www.w3.org/2000/svg">
      <defs><linearGradient id="bg" x1="0" y1="0" x2="900" y2="700" gradientUnits="userSpaceOnUse"><stop stop-color="#F1FBF6"/><stop offset="1" stop-color="#E7F8EF"/></linearGradient><filter id="shadow" x="-40%" y="-40%" width="180%" height="180%"><feDropShadow dx="0" dy="18" stdDeviation="20" flood-color="#0F172A" flood-opacity="0.12"/></filter></defs>
      <rect width="900" height="700" rx="36" fill="url(#bg)"/><circle cx="835" cy="40" r="190" fill="#16A34A" fill-opacity="0.09"/>
      <rect x="58" y="58" width="230" height="42" rx="21" fill="white" fill-opacity="0.85"/><circle cx="84" cy="79" r="7" fill="#16A34A"/><text x="105" y="87" fill="#16A34A" font-size="21" font-weight="800" font-family="'Pretendard','Noto Sans KR','Malgun Gothic',sans-serif">인터넷 · TV</text>
      <text x="58" y="176" fill="#0F172A" font-size="50" font-weight="900" letter-spacing="-2.3" font-family="'Pretendard','Noto Sans KR','Malgun Gothic',sans-serif">저렴한 요금부터</text><text x="58" y="237" fill="#16A34A" font-size="50" font-weight="900" letter-spacing="-2.3" font-family="'Pretendard','Noto Sans KR','Malgun Gothic',sans-serif">최대 혜택까지 한 번에</text><text x="61" y="291" fill="#475569" font-size="23" font-weight="600" font-family="'Pretendard','Noto Sans KR','Malgun Gothic',sans-serif">통신사별 요금과 지원 혜택을 쉽고 정확하게 비교하세요</text>
      <g transform="translate(188 354)"><rect width="524" height="260" rx="44" fill="white"/><rect x="82" y="167" width="360" height="62" rx="20" fill="#F0FDF4"/><rect x="120" y="183" width="166" height="31" rx="10" fill="#16A34A"/><circle cx="350" cy="199" r="9" fill="#22C55E"/><circle cx="388" cy="199" r="9" fill="#BBF7D0"/><path d="M171 111C224 58 309 58 362 111" stroke="#16A34A" stroke-width="22" stroke-linecap="round"/><path d="M222 149C247 124 286 124 311 149" stroke="#16A34A" stroke-width="22" stroke-linecap="round"/><circle cx="266" cy="179" r="13" fill="#16A34A"/></g>
    </svg>