<svg width="900" height="700" viewBox="0 0 900 700" fill="none" xmlns="http://www.w3.org/2000/svg">
      <defs><linearGradient id="bg" x1="0" y1="0" x2="900" y2="700" gradientUnits="userSpaceOnUse"><stop stop-color="#F3FBFA"/><stop offset="1" stop-color="#E7FFFB"/></linearGradient><filter id="shadow" x="-40%" y="-40%" width="180%" height="180%"><feDropShadow dx="0" dy="18" stdDeviation="20" flood-color="#0F172A" flood-opacity="0.12"/></filter></defs>
      <rect width="900" height="700" rx="36" fill="url(#bg)"/><circle cx="835" cy="40" r="190" fill="#0D9488" fill-opacity="0.09"/>
      <rect x="58" y="58" width="230" height="42" rx="21" fill="white" fill-opacity="0.85"/><circle cx="84" cy="79" r="7" fill="#0D9488"/><text x="105" y="87" fill="#0D9488" font-size="21" font-weight="800" font-family="'Pretendard','Noto Sans KR','Malgun Gothic',sans-serif">생활가전 렌탈</text>
      <text x="58" y="176" fill="#0F172A" font-size="50" font-weight="900" letter-spacing="-2.3" font-family="'Pretendard','Noto Sans KR','Malgun Gothic',sans-serif">80개 렌탈 상품을</text><text x="58" y="237" fill="#0D9488" font-size="50" font-weight="900" letter-spacing="-2.3" font-family="'Pretendard','Noto Sans KR','Malgun Gothic',sans-serif">검색하고 직접 비교하세요</text><text x="61" y="291" fill="#475569" font-size="23" font-weight="600" font-family="'Pretendard','Noto Sans KR','Malgun Gothic',sans-serif">정수기부터 생활가전까지 모델과 월요금을 한 곳에서</text>
      <g transform="translate(150 350)"><rect x="0" y="44" width="150" height="270" rx="34" fill="white"/><rect x="28" y="83" width="94" height="126" rx="22" fill="#ECFEFF"/><circle cx="75" cy="262" r="18" fill="#0D9488"/><rect x="184" y="10" width="250" height="304" rx="42" fill="white"/><circle cx="309" cy="155" r="76" fill="#F0FDFA" stroke="#5EEAD4" stroke-width="12"/><circle cx="309" cy="155" r="35" fill="#99F6E4"/><rect x="470" y="72" width="130" height="242" rx="34" fill="white"/><rect x="499" y="106" width="72" height="110" rx="20" fill="#F0FDFA"/><path d="M518 257H552" stroke="#0D9488" stroke-width="10" stroke-linecap="round"/></g>
    </svg>