<svg width="900" height="700" viewBox="0 0 900 700" fill="none" xmlns="http://www.w3.org/2000/svg">
      <defs><linearGradient id="bg" x1="0" y1="0" x2="900" y2="700" gradientUnits="userSpaceOnUse"><stop stop-color="#ECFDF5"/><stop offset="1" stop-color="#D1FAE5"/></linearGradient><filter id="shadow" x="-40%" y="-40%" width="180%" height="180%"><feDropShadow dx="0" dy="18" stdDeviation="20" flood-color="#0F172A" flood-opacity="0.12"/></filter></defs>
      <rect width="900" height="700" rx="36" fill="url(#bg)"/><circle cx="835" cy="40" r="190" fill="#16A34A" fill-opacity="0.09"/>
      <rect x="58" y="58" width="230" height="42" rx="21" fill="white" fill-opacity="0.85"/><circle cx="84" cy="79" r="7" fill="#16A34A"/><text x="105" y="87" fill="#16A34A" font-size="21" font-weight="800" font-family="'Pretendard','Noto Sans KR','Malgun Gothic',sans-serif">우선생 간편상담</text>
      <text x="58" y="176" fill="#0F172A" font-size="50" font-weight="900" letter-spacing="-2.3" font-family="'Pretendard','Noto Sans KR','Malgun Gothic',sans-serif">복잡한 조건은</text><text x="58" y="237" fill="#16A34A" font-size="50" font-weight="900" letter-spacing="-2.3" font-family="'Pretendard','Noto Sans KR','Malgun Gothic',sans-serif">우선생이 빠르게 정리</text><text x="61" y="291" fill="#475569" font-size="23" font-weight="600" font-family="'Pretendard','Noto Sans KR','Malgun Gothic',sans-serif">이름과 연락처만 남기면 필요한 내용만 안내해드려요</text>
      <g transform="translate(155 365)"><rect width="590" height="250" rx="46" fill="white"/><circle cx="180" cy="120" r="72" fill="#DCFCE7"/><path d="M132 126C132 96 154 74 184 74C214 74 236 96 236 126V144C236 174 214 196 184 196H164" stroke="#16A34A" stroke-width="18" stroke-linecap="round"/><rect x="315" y="77" width="164" height="28" rx="14" fill="#DCFCE7"/><rect x="315" y="123" width="126" height="22" rx="11" fill="#BBF7D0"/><rect x="315" y="166" width="142" height="22" rx="11" fill="#86EFAC"/><circle cx="514" cy="54" r="38" fill="#16A34A"/><path d="M499 54L510 65L531 43" stroke="white" stroke-width="8" stroke-linecap="round" stroke-linejoin="round"/></g>
    </svg>