<svg xmlns="http://www.w3.org/2000/svg" width="900" height="400" viewBox="0 0 900 400">
  <defs><linearGradient id="bg" x1="0" y1="0" x2="900" y2="400"><stop stop-color="#ECFDF5"/><stop offset="1" stop-color="#D1FAE5"/></linearGradient></defs>
  <rect width="900" height="400" rx="32" fill="url(#bg)"/><circle cx="830" cy="20" r="150" fill="#16A34A" opacity=".10"/>
  <rect x="42" y="34" width="204" height="36" rx="18" fill="white" opacity=".92"/><circle cx="64" cy="52" r="6" fill="#16A34A"/><text x="82" y="59" fill="#15803D" font-size="18" font-weight="800" font-family="Pretendard,Noto Sans KR,Malgun Gothic,sans-serif">우선생 간편상담</text>
  <text x="42" y="128" fill="#0F172A" font-size="44" font-weight="900" letter-spacing="-2" font-family="Pretendard,Noto Sans KR,Malgun Gothic,sans-serif">복잡한 조건은</text><text x="42" y="182" fill="#16A34A" font-size="44" font-weight="900" letter-spacing="-2" font-family="Pretendard,Noto Sans KR,Malgun Gothic,sans-serif">우선생이 빠르게 정리</text>
  <text x="44" y="224" fill="#475569" font-size="19" font-weight="600" font-family="Pretendard,Noto Sans KR,Malgun Gothic,sans-serif">이름과 연락처만 남기면 필요한 내용만 안내해드려요</text>
  <rect x="42" y="258" width="164" height="48" rx="16" fill="#16A34A"/><text x="124" y="289" text-anchor="middle" fill="white" font-size="18" font-weight="800" font-family="Pretendard,Noto Sans KR,Malgun Gothic,sans-serif">상담 신청하기</text>
  <g transform="translate(585 72)"><rect width="255" height="255" rx="42" fill="white"/><circle cx="86" cy="126" r="52" fill="#DCFCE7"/><path d="M52 131c0-27 19-46 46-46s46 19 46 46v13c0 27-19 46-46 46H84" stroke="#16A34A" stroke-width="13" fill="none" stroke-linecap="round"/><rect x="160" y="83" width="58" height="13" rx="7" fill="#DCFCE7"/><rect x="160" y="115" width="44" height="11" rx="6" fill="#BBF7D0"/><rect x="160" y="145" width="52" height="11" rx="6" fill="#86EFAC"/><circle cx="208" cy="48" r="27" fill="#16A34A"/><path d="M197 48l8 8 14-16" stroke="white" stroke-width="6" fill="none" stroke-linecap="round" stroke-linejoin="round"/></g>
</svg>
