<svg xmlns="http://www.w3.org/2000/svg" width="900" height="400" viewBox="0 0 900 400">
  <defs><linearGradient id="bg" x1="0" y1="0" x2="900" y2="400"><stop stop-color="#F0FDF4"/><stop offset="1" stop-color="#DCFCE7"/></linearGradient></defs>
  <rect width="900" height="400" rx="32" fill="url(#bg)"/>
  <circle cx="830" cy="20" r="150" fill="#16A34A" opacity=".10"/>
  <rect x="42" y="34" width="178" height="36" rx="18" fill="white" opacity=".92"/><circle cx="64" cy="52" r="6" fill="#16A34A"/><text x="82" y="59" fill="#15803D" font-size="18" font-weight="800" font-family="Pretendard,Noto Sans KR,Malgun Gothic,sans-serif">인터넷 · TV</text>
  <text x="42" y="128" fill="#0F172A" font-size="44" font-weight="900" letter-spacing="-2" font-family="Pretendard,Noto Sans KR,Malgun Gothic,sans-serif">저렴한 요금부터</text>
  <text x="42" y="182" fill="#16A34A" font-size="44" font-weight="900" letter-spacing="-2" font-family="Pretendard,Noto Sans KR,Malgun Gothic,sans-serif">최대 혜택까지</text>
  <text x="44" y="224" fill="#475569" font-size="19" font-weight="600" font-family="Pretendard,Noto Sans KR,Malgun Gothic,sans-serif">통신사별 요금과 혜택을 쉽고 정확하게 비교하세요</text>
  <rect x="42" y="258" width="164" height="48" rx="16" fill="#16A34A"/><text x="124" y="289" text-anchor="middle" fill="white" font-size="18" font-weight="800" font-family="Pretendard,Noto Sans KR,Malgun Gothic,sans-serif">지금 비교하기</text>
  <g transform="translate(585 72)"><rect width="255" height="255" rx="42" fill="white"/><path d="M52 112c44-44 107-44 151 0" stroke="#16A34A" stroke-width="17" stroke-linecap="round"/><path d="M85 151c24-24 61-24 85 0" stroke="#16A34A" stroke-width="17" stroke-linecap="round"/><circle cx="127" cy="191" r="11" fill="#16A34A"/><rect x="42" y="217" width="171" height="18" rx="9" fill="#DCFCE7"/></g>
</svg>
