<svg xmlns="http://www.w3.org/2000/svg" width="1200" height="900" viewBox="0 0 1200 900">
  <rect width="1200" height="900" rx="56" fill="#F8FAFC"/>
  <circle cx="1040" cy="110" r="180" fill="#16A34A" opacity=".08"/>
  <rect x="80" y="68" width="1040" height="764" rx="42" fill="#FFFFFF"/>
  <text x="96" y="132" fill="#0F172A" font-family="Arial,'Noto Sans KR',sans-serif" font-size="36" font-weight="800">비데</text>
  <text x="96" y="178" fill="#64748B" font-family="Arial,'Noto Sans KR',sans-serif" font-size="22" font-weight="600"></text>
  <g transform="translate(310 250)"><path d="M170 90h260c70 0 116 46 116 102 0 80-94 168-246 168S54 272 54 192c0-56 46-102 116-102Z" fill="#F8FAFC" stroke="#DDE7E2" stroke-width="9"/><ellipse cx="300" cy="190" rx="150" ry="88" fill="#FFFFFF" stroke="#CBD5E1" stroke-width="8"/><path d="M258 190c0-42 34-76 76-76h50" stroke="#16A34A" stroke-width="20" stroke-linecap="round" opacity=".75"/><rect x="476" y="54" width="90" height="230" rx="28" fill="#ECFDF5" stroke="#DDE7E2" stroke-width="7"/><circle cx="521" cy="110" r="13" fill="#16A34A"/></g>  <rect x="96" y="770" width="220" height="18" rx="9" fill="#16A34A" opacity=".85"/>
</svg>