<svg xmlns="http://www.w3.org/2000/svg" width="1200" height="900" viewBox="0 0 1200 900">
  <rect width="1200" height="900" rx="56" fill="#F8FAFC"/>
  <circle cx="1040" cy="110" r="180" fill="#16A34A" opacity=".08"/>
  <rect x="80" y="68" width="1040" height="764" rx="42" fill="#FFFFFF"/>
  <text x="96" y="132" fill="#0F172A" font-family="Arial,'Noto Sans KR',sans-serif" font-size="36" font-weight="800">냉동고</text>
  <text x="96" y="178" fill="#64748B" font-family="Arial,'Noto Sans KR',sans-serif" font-size="22" font-weight="600"></text>
  <g transform="translate(420 190)"><rect width="360" height="540" rx="42" fill="#F8FAFC" stroke="#DDE7E2" stroke-width="8"/><rect x="44" y="70" width="272" height="390" rx="26" fill="#ECFDF5"/><path d="M180 114v304M96 196h168M96 282h168M96 368h168" stroke="#CBD5E1" stroke-width="12" stroke-linecap="round"/><path d="M180 184l-28-28M180 184l28-28M180 184v-40M180 184h-40M180 184h40" stroke="#16A34A" stroke-width="12" stroke-linecap="round"/><rect x="310" y="132" width="12" height="130" rx="6" fill="#64748B"/></g>  <rect x="96" y="770" width="220" height="18" rx="9" fill="#16A34A" opacity=".85"/>
</svg>