<svg xmlns="http://www.w3.org/2000/svg" width="1200" height="900" viewBox="0 0 1200 900">
  <rect width="1200" height="900" rx="56" fill="#F8FAFC"/>
  <circle cx="1040" cy="110" r="180" fill="#16A34A" opacity=".08"/>
  <rect x="80" y="68" width="1040" height="764" rx="42" fill="#FFFFFF"/>
  <text x="96" y="132" fill="#0F172A" font-family="Arial,'Noto Sans KR',sans-serif" font-size="36" font-weight="800">정수기</text>
  <text x="96" y="178" fill="#64748B" font-family="Arial,'Noto Sans KR',sans-serif" font-size="22" font-weight="600"></text>
  <g transform="translate(420 220)"><rect width="360" height="470" rx="72" fill="#F8FAFC" stroke="#DDE7E2" stroke-width="8"/><rect x="94" y="70" width="172" height="190" rx="34" fill="#ECFDF5"/><circle cx="180" cy="168" r="42" fill="#16A34A" opacity=".18"/><path d="M180 120C154 154 140 176 140 202c0 25 18 43 40 43s40-18 40-43c0-26-14-48-40-82Z" fill="#16A34A"/><rect x="92" y="308" width="176" height="44" rx="22" fill="#E2E8F0"/><rect x="126" y="384" width="108" height="18" rx="9" fill="#16A34A"/></g>  <rect x="96" y="770" width="220" height="18" rx="9" fill="#16A34A" opacity=".85"/>
</svg>