<svg width="1600" height="280" viewBox="0 0 1600 280" fill="none" xmlns="http://www.w3.org/2000/svg">
      <defs>
        <linearGradient id="bg" x1="0" y1="0" x2="1600" y2="280" gradientUnits="userSpaceOnUse"><stop stop-color="#F1FBF6"/><stop offset="1" stop-color="#E7F8EF"/></linearGradient>
        <filter id="shadow" x="-40%" y="-40%" width="180%" height="180%"><feDropShadow dx="0" dy="12" stdDeviation="14" flood-color="#0F172A" flood-opacity="0.12"/></filter>
      </defs>
      <rect width="1600" height="280" rx="28" fill="url(#bg)"/>
  <g transform="translate(0 20)">
      <circle cx="1540" cy="-20" r="190" fill="#16A34A" fill-opacity="0.09"/><circle cx="1390" cy="270" r="210" fill="#16A34A" fill-opacity="0.07"/>
      <rect x="70" y="38" width="190" height="30" rx="15" fill="white" fill-opacity="0.82"/>
      <circle cx="89" cy="53" r="5" fill="#16A34A"/><text x="104" y="59" fill="#16A34A" font-size="15" font-weight="800" font-family="'Pretendard','Noto Sans KR','Malgun Gothic',sans-serif">조건 비교</text>
      <text x="70" y="116" fill="#0F172A" font-size="38" font-weight="900" letter-spacing="-1.8" font-family="'Pretendard','Noto Sans KR','Malgun Gothic',sans-serif">월 렌탈료부터</text>
      <text x="70" y="159" fill="#16A34A" font-size="38" font-weight="900" letter-spacing="-1.8" font-family="'Pretendard','Noto Sans KR','Malgun Gothic',sans-serif">카드 할인·관리 방식까지</text>
      <text x="72" y="199" fill="#475569" font-size="18" font-weight="600" font-family="'Pretendard','Noto Sans KR','Malgun Gothic',sans-serif">같은 기준으로 정리된 조건을 한눈에 비교하세요</text>
      <rect x="1100" y="18" width="410" height="204" rx="42" fill="#16A34A" fill-opacity="0.075"/>
      <g transform="translate(1120 24)">
          <rect x="0" y="18" width="92" height="178" rx="24" fill="white"/>
          <rect x="17" y="43" width="58" height="82" rx="15" fill="#ECFEFF"/>
          <circle cx="46" cy="158" r="12" fill="#16A34A"/>
          <rect x="118" y="0" width="154" height="196" rx="30" fill="white"/>
          <circle cx="195" cy="98" r="48" fill="#F0FDFA" stroke="#5EEAD4" stroke-width="8"/>
          <circle cx="195" cy="98" r="23" fill="#99F6E4"/>
          <rect x="296" y="40" width="82" height="156" rx="25" fill="white"/>
          <rect x="315" y="62" width="44" height="72" rx="14" fill="#F0FDFA"/>
          <path d="M326 157H348" stroke="#16A34A" stroke-width="7" stroke-linecap="round"/>
        </g>
    
  </g>
</svg>
