<svg width="1600" height="280" viewBox="0 0 1600 280" fill="none" xmlns="http://www.w3.org/2000/svg">
      <defs>
        <linearGradient id="bg" x1="0" y1="0" x2="1600" y2="280" gradientUnits="userSpaceOnUse"><stop stop-color="#EFF6FF"/><stop offset="1" stop-color="#ECFDF5"/></linearGradient>
        <filter id="shadow" x="-40%" y="-40%" width="180%" height="180%"><feDropShadow dx="0" dy="12" stdDeviation="14" flood-color="#0F172A" flood-opacity="0.12"/></filter>
      </defs>
      <rect width="1600" height="280" rx="28" fill="url(#bg)"/>
  <g transform="translate(0 20)">
      <circle cx="1540" cy="-20" r="190" fill="#059669" fill-opacity="0.09"/><circle cx="1390" cy="270" r="210" fill="#059669" fill-opacity="0.07"/>
      <rect x="70" y="38" width="190" height="30" rx="15" fill="white" fill-opacity="0.82"/>
      <circle cx="89" cy="53" r="5" fill="#059669"/><text x="104" y="59" fill="#059669" font-size="15" font-weight="800" font-family="'Pretendard','Noto Sans KR','Malgun Gothic',sans-serif">최대 3개 비교</text>
      <text x="70" y="116" fill="#0F172A" font-size="38" font-weight="900" letter-spacing="-1.8" font-family="'Pretendard','Noto Sans KR','Malgun Gothic',sans-serif">마음에 드는 상품을</text>
      <text x="70" y="159" fill="#059669" font-size="38" font-weight="900" letter-spacing="-1.8" font-family="'Pretendard','Noto Sans KR','Malgun Gothic',sans-serif">나란히 놓고 비교</text>
      <text x="72" y="199" fill="#475569" font-size="18" font-weight="600" font-family="'Pretendard','Noto Sans KR','Malgun Gothic',sans-serif">요금·약정·기능 차이를 확인하고 상담까지 이어가세요</text>
      <rect x="1100" y="18" width="410" height="204" rx="42" fill="#059669" fill-opacity="0.075"/>
      <g transform="translate(1130 30)">
          <rect width="350" height="180" rx="32" fill="white" stroke="#D7E7E4" stroke-width="2"/>
          <rect x="30" y="28" width="290" height="54" rx="18" fill="#F8FAFC" stroke="#E2E8F0"/>
          <circle cx="62" cy="55" r="12" stroke="#059669" stroke-width="5"/>
          <path d="M71 64L80 73" stroke="#059669" stroke-width="5" stroke-linecap="round"/>
          <rect x="94" y="48" width="142" height="12" rx="6" fill="#CBD5E1"/>
          <rect x="30" y="105" width="88" height="42" rx="14" fill="#ECFDF5"/>
          <rect x="131" y="105" width="88" height="42" rx="14" fill="#F0FDFA"/>
          <rect x="232" y="105" width="88" height="42" rx="14" fill="#F8FAFC"/>
        </g>
    
  </g>
</svg>
