<svg xmlns="http://www.w3.org/2000/svg" width="900" height="400" viewBox="0 0 900 400">
  <defs><linearGradient id="bg" x1="0" y1="0" x2="900" y2="400"><stop stop-color="#EFF6FF"/><stop offset="1" stop-color="#ECFDF5"/></linearGradient></defs><rect width="900" height="400" rx="32" fill="url(#bg)"/>
  <text x="42" y="62" fill="#047857" font-size="19" font-weight="800" font-family="Pretendard,Noto Sans KR,Malgun Gothic,sans-serif">최대 3개 비교</text><text x="42" y="132" fill="#0F172A" font-size="44" font-weight="900" letter-spacing="-2" font-family="Pretendard,Noto Sans KR,Malgun Gothic,sans-serif">마음에 드는 상품을</text><text x="42" y="186" fill="#059669" font-size="44" font-weight="900" letter-spacing="-2" font-family="Pretendard,Noto Sans KR,Malgun Gothic,sans-serif">나란히 놓고 비교</text><text x="44" y="226" fill="#475569" font-size="18" font-weight="600" font-family="Pretendard,Noto Sans KR,Malgun Gothic,sans-serif">요금·약정·기능 차이를 확인하고 상담까지 이어가세요</text>
  <g transform="translate(560 85)"><rect x="0" y="28" width="82" height="186" rx="24" fill="white"/><rect x="96" y="0" width="98" height="214" rx="27" fill="white" stroke="#A7F3D0" stroke-width="4"/><rect x="208" y="28" width="82" height="186" rx="24" fill="white"/><rect x="18" y="66" width="46" height="70" rx="13" fill="#ECFDF5"/><rect x="118" y="48" width="54" height="90" rx="15" fill="#D1FAE5"/><rect x="226" y="66" width="46" height="70" rx="13" fill="#F0FDFA"/><rect x="20" y="158" width="42" height="10" rx="5" fill="#86EFAC"/><rect x="119" y="164" width="52" height="12" rx="6" fill="#059669"/><rect x="228" y="158" width="42" height="10" rx="5" fill="#A7F3D0"/></g>
</svg>
