<svg width="900" height="700" viewBox="0 0 900 700" fill="none" xmlns="http://www.w3.org/2000/svg">
      <defs><linearGradient id="bg" x1="0" y1="0" x2="900" y2="700" gradientUnits="userSpaceOnUse"><stop stop-color="#EFF6FF"/><stop offset="1" stop-color="#ECFDF5"/></linearGradient><filter id="shadow" x="-40%" y="-40%" width="180%" height="180%"><feDropShadow dx="0" dy="18" stdDeviation="20" flood-color="#0F172A" flood-opacity="0.12"/></filter></defs>
      <rect width="900" height="700" rx="36" fill="url(#bg)"/><circle cx="835" cy="40" r="190" fill="#059669" fill-opacity="0.09"/>
      <rect x="58" y="58" width="230" height="42" rx="21" fill="white" fill-opacity="0.85"/><circle cx="84" cy="79" r="7" fill="#059669"/><text x="105" y="87" fill="#059669" font-size="21" font-weight="800" font-family="'Pretendard','Noto Sans KR','Malgun Gothic',sans-serif">최대 3개 비교</text>
      <text x="58" y="176" fill="#0F172A" font-size="50" font-weight="900" letter-spacing="-2.3" font-family="'Pretendard','Noto Sans KR','Malgun Gothic',sans-serif">마음에 드는 상품을</text><text x="58" y="237" fill="#059669" font-size="50" font-weight="900" letter-spacing="-2.3" font-family="'Pretendard','Noto Sans KR','Malgun Gothic',sans-serif">나란히 놓고 비교</text><text x="61" y="291" fill="#475569" font-size="23" font-weight="600" font-family="'Pretendard','Noto Sans KR','Malgun Gothic',sans-serif">요금·약정·기능 차이를 확인하고 상담까지 이어가세요</text>
      <g transform="translate(120 380)"><rect width="660" height="220" rx="42" fill="white" stroke="#D7E7E4" stroke-width="3"/><rect x="48" y="42" width="564" height="72" rx="24" fill="#F8FAFC" stroke="#E2E8F0" stroke-width="2"/><circle cx="94" cy="78" r="17" stroke="#059669" stroke-width="7"/><path d="M107 91L122 106" stroke="#059669" stroke-width="7" stroke-linecap="round"/><rect x="147" y="68" width="260" height="18" rx="9" fill="#CBD5E1"/><rect x="48" y="142" width="158" height="48" rx="16" fill="#ECFDF5"/><rect x="229" y="142" width="158" height="48" rx="16" fill="#F0FDFA"/><rect x="410" y="142" width="158" height="48" rx="16" fill="#F8FAFC"/></g>
    </svg>