<?xml version="1.0" encoding="UTF-8" standalone="no"?>
<svg
   version="1.1"
   viewBox="0 0 1072.208 382.51263"
   id="svg8"
   width="1072.208"
   height="382.51263"
   xmlns="http://www.w3.org/2000/svg"
   xmlns:svg="http://www.w3.org/2000/svg">
  <defs
     id="defs8" />
  <path
     d="m 567.51137,4.1997163 c 8.03474,5.3599932 11.54248,11.3965737 15.11719,20.2460937 0.94888,2.25049 1.90216,4.499131 2.85937,6.746093 0.49178,1.157417 0.98356,2.314834 1.49024,3.507325 2.47742,5.678891 5.18367,11.241657 7.90039,16.809082 4.35735,8.961741 8.63615,17.952436 12.8125,27 5.14426,11.134989 10.3666,22.231 15.625,33.3125 1.54566,3.25777 3.09126,6.51557 4.63672,9.77344 0.38203,0.80532 0.76406,1.61063 1.15766,2.44035 3.85508,8.12969 7.68944,16.26907 11.51812,24.41121 0.32618,0.69362 0.65236,1.38724 0.98843,2.10187 1.63989,3.48739 3.27943,6.97495 4.91879,10.46259 2.98651,6.35315 5.97628,12.70476 8.96576,19.05652 1.66747,3.54294 3.33473,7.08599 5.00202,10.62902 0.66666,1.41667 1.33333,2.83334 2,4.25 4,8.5 4,8.5 4.99995,10.62491 0.66682,1.41698 1.33363,2.83395 2.00046,4.25092 1.66447,3.53693 3.32884,7.07391 4.993,10.61099 3.02607,6.4315 6.05294,12.86262 9.08351,19.29201 1.70402,3.61516 3.40745,7.23059 5.11058,10.84617 0.33317,0.70727 0.66634,1.41453 1.00961,2.14322 5.10518,10.84065 10.16007,21.70361 15.19302,32.57798 5.10669,11.01425 10.3387,21.96746 15.60987,32.9038 0.66,0 1.32,0 2,0 0.33096,-0.64211 0.66193,-1.28422 1.00293,-1.9458 6.3217,-12.24966 12.7054,-24.45383 19.33838,-36.53808 4.05798,-7.39722 8.05533,-14.82581 12.03369,-22.26612 1.27727,-2.38806 2.55462,-4.77607 3.83203,-7.16406 0.31633,-0.5914 0.63266,-1.1828 0.95857,-1.79213 5.01318,-9.36959 10.05921,-18.72155 15.10051,-28.07603 2.91259,-5.40523 5.82313,-10.81156 8.73389,-16.21778 1.16665,-2.16667 2.33332,-4.33333 3.5,-6.5 0.86625,-1.60875 0.86625,-1.60875 1.75,-3.25 16.625,-30.875 16.625,-30.875 33.25,-61.75 0.57766,-1.07282 1.15532,-2.14564 1.75049,-3.25097 1.16496,-2.16346 2.33,-4.32687 3.49511,-6.49024 2.9434,-5.46549 5.88539,-10.93173 8.82471,-16.39941 5.42775,-10.093606 10.86729,-20.179883 16.36719,-30.23438 9.10824,-16.659057 18.05894,-33.405018 26.9375,-50.1875 0.41073,-0.773035 0.82145,-1.54607 1.24463,-2.34253 1.49603,-2.838821 2.86366,-5.544854 3.88037,-8.59497 0.66,0 1.32,0 2,0 0.39058,-0.891387 0.39058,-0.891387 0.78906,-1.800781 1.28863,-2.340324 2.55904,-3.6651854 4.58594,-5.3867189 0.58523,-0.5091797 1.17047,-1.0183594 1.77343,-1.5429688 5.30097,-3.6346274 12.73856,-2.8808325 18.85157,-2.2695313 8.1231,2.5307547 14.33018,9.377632 18.49487,16.588135 1.39407,2.878564 2.6824,5.784748 3.94263,8.724365 1.03297,2.319984 2.06826,4.638938 3.10547,6.957031 0.2724,0.613966 0.54481,1.227933 0.82547,1.860504 3.14894,7.084583 6.47399,14.084727 9.79861,21.088135 1.82715,3.849899 3.64791,7.702817 5.46967,11.555267 0.36387,0.769052 0.72775,1.538104 1.10266,2.33046 3.78562,8.001741 7.55557,16.010835 11.32312,24.021103 0.66243,1.408205 1.32486,2.81641 1.9873,4.22461 1.3222,2.81083 2.64429,5.62171 3.96631,8.43262 2.99326,6.36407 5.98814,12.72738 8.98288,19.09076 1.66707,3.54231 3.33403,7.08466 5.00101,10.62701 0.66666,1.41667 1.33333,2.83334 2,4.25 20.00004,42.5 20.00004,42.5 20.99994,44.62494 0.6668,1.41687 1.3336,2.83374 2.0003,4.25061 1.6652,3.53851 3.3304,7.07706 4.9954,10.61566 3.0174,6.41272 6.0353,12.82519 9.0557,19.23649 6.6526,14.12136 13.2949,28.24719 19.8862,42.3973 5.4039,11.59922 10.8487,23.17884 16.3125,34.75 0.3747,0.79388 0.7494,1.58777 1.1354,2.4057 1.0637,2.25307 2.128,4.50579 3.1927,6.75837 0.317,0.6715 0.6341,1.343 0.9607,2.03485 1.1801,2.49444 2.3562,4.9791 3.654,7.41485 2.3969,5.23024 1.5417,13.76711 0.19,19.27686 -2.9034,6.52615 -8.7624,11.60804 -15.2578,14.42187 -6.879,2.18938 -14.4908,1.81636 -21.125,-0.9375 -6.5709,-4.23204 -9.1533,-9.46736 -12.0198,-16.50293 -3.4753,-8.51455 -7.352,-16.81718 -11.2927,-25.12207 -0.7067,-1.49465 -1.4131,-2.98945 -2.1192,-4.48437 -1.4626,-3.09592 -2.9264,-6.19124 -4.3911,-9.28613 -3.073,-6.49572 -6.13052,-12.99875 -9.18832,-19.50165 -1.66226,-3.53462 -3.32565,-7.06871 -4.98892,-10.60285 -0.66667,-1.41666 -1.33334,-2.83333 -2,-4.25 -0.33,-0.70125 -0.66,-1.4025 -1,-2.125 -19,-40.375 -19,-40.375 -19.99997,-42.49994 -0.66677,-1.41687 -1.33353,-2.83374 -2.00031,-4.25061 -1.6652,-3.53851 -3.33033,-7.07705 -4.99533,-10.61566 -3.0174,-6.41271 -6.03532,-12.82518 -9.05574,-19.23648 -7.21715,-15.31965 -14.41541,-30.64755 -21.5634,-45.9996 -3.30104,-7.08415 -6.6249,-14.15718 -9.96728,-21.22192 -0.38845,-0.82124 -0.7769,-1.64247 -1.17711,-2.48859 -1.90862,-4.03404 -3.81932,-8.06708 -5.73281,-12.09882 -0.69542,-1.468247 -1.39082,-2.936508 -2.08618,-4.404787 -0.31705,-0.666339 -0.63411,-1.332679 -0.96077,-2.01921 -1.60382,-3.389906 -3.11432,-6.789013 -4.4611,-10.289383 -4.42758,6.775661 -8.19291,13.863205 -11.95539,21.01966 -1.89232,3.59853 -3.79486,7.19166 -5.69696,10.78503 -0.56515,1.06831 -0.56515,1.06831 -1.14172,2.1582 -3.06505,5.78734 -6.18105,11.54549 -9.33093,17.28711 -4.46364,8.14179 -8.87091,16.31245 -13.25,24.5 -0.31616,0.59106 -0.63231,1.18211 -0.95804,1.79108 -0.31621,0.59118 -0.63243,1.18235 -0.95822,1.79144 -0.63858,1.19386 -1.27717,2.3877 -1.91577,3.58155 -0.47447,0.88705 -0.47447,0.88705 -0.95852,1.79202 -5.01321,9.36962 -10.05925,18.72162 -15.10057,28.07614 -2.91259,5.40523 -5.82312,10.81156 -8.73388,16.21777 -1.16666,2.16668 -2.33333,4.33334 -3.5,6.5 -0.86625,1.60875 -0.86625,1.60875 -1.75,3.25 -2.625,4.875 -2.625,4.875 -5.25,9.75 -0.86637,1.609 -0.86637,1.609 -1.75025,3.25049 -1.16581,2.16506 -2.33166,4.3301 -3.49756,6.49512 -2.93003,5.44108 -5.85937,10.88252 -8.78735,16.32471 -6.14638,11.42236 -12.30732,22.83652 -18.49365,34.2373 -3.92272,7.23701 -7.81004,14.4926 -11.68915,21.75302 -4.64679,8.6958 -9.3089,17.38146 -14.09454,26.00186 -0.40243,0.72558 -0.80486,1.45117 -1.21948,2.19873 -4.81517,8.62441 -10.01732,11.67938 -18.96802,15.23877 -6.26799,1.20636 -11.44753,0.18753 -17,-3 -7.61225,-5.54489 -7.61225,-5.54489 -8.72657,-9.72656 -0.0902,-0.75023 -0.18046,-1.50047 -0.27343,-2.27344 -0.55688,0.55688 -1.11375,1.11375 -1.6875,1.6875 -0.76313,0.76313 -1.52625,1.52625 -2.3125,2.3125 -0.825,0.86625 -1.65,1.7325 -2.5,2.625 -3.21977,3.05878 -5.04792,4.375 -9.5,4.375 0,0.66 0,1.32 0,2 -2.31079,0.13701 -4.62403,0.23289 -6.9375,0.3125 -1.28778,0.058 -2.57555,0.11602 -3.90235,0.17578 -5.17507,-0.3039 -9.2451,-2.09912 -13.16015,-5.48828 -2.40792,-3.51038 -3.95886,-7.25614 -5.5625,-11.1875 -1.02492,-2.35912 -2.0524,-4.71714 -3.08203,-7.07422 -0.40061,-0.93276 -0.40061,-0.93276 -0.8093,-1.88436 -2.93007,-6.8175 -6.10212,-13.51617 -9.28369,-20.21906 -1.36767,-2.88377 -2.72772,-5.77111 -4.08782,-8.65846 -1.03608,-2.19947 -2.07306,-4.39852 -3.11021,-6.59749 -3.02678,-6.41879 -6.04745,-12.84046 -9.06848,-19.26196 -1.66507,-3.53911 -3.33054,-7.07802 -4.99597,-10.61695 -0.66667,-1.41666 -1.33334,-2.83333 -2,-4.25 -0.33,-0.70125 -0.66,-1.4025 -1,-2.125 -19,-40.375 -19,-40.375 -19.99997,-42.49994 -0.66677,-1.41687 -1.33354,-2.83374 -2.00031,-4.25061 -1.6652,-3.53851 -3.33033,-7.07705 -4.99533,-10.61566 -3.0174,-6.41271 -6.03532,-12.82518 -9.05574,-19.23648 -7.21854,-15.32261 -14.41737,-30.65387 -21.56779,-46.00839 -3.27794,-7.03348 -6.57636,-14.057 -9.89258,-21.07251 -0.38371,-0.81177 -0.76743,-1.62353 -1.16277,-2.4599 -1.87865,-3.97309 -3.75911,-7.94533 -5.64168,-11.91657 -3.30945,-6.98766 -6.59242,-13.977122 -9.68383,-21.06494 -7.04384,11.972277 -13.52661,24.24813 -20.06314,36.50125 -3.31719,6.21651 -6.65635,12.4211 -9.99936,18.62375 -0.57315,1.0638 -1.1463,2.1276 -1.73682,3.22364 -1.1555,2.14458 -2.3111,4.28911 -3.4668,6.43359 -2.91259,5.40523 -5.82313,10.81156 -8.73388,16.21777 -1.16666,2.16668 -2.33333,4.33334 -3.5,6.5 -0.5775,1.0725 -1.155,2.145 -1.75,3.25 -16.625,30.875 -16.625,30.875 -33.25,61.75 -0.57758,1.07266 -1.15516,2.14533 -1.75025,3.25049 -1.16581,2.16506 -2.33166,4.3301 -3.49756,6.49512 -2.93003,5.44108 -5.85937,10.88252 -8.78735,16.32471 -6.14763,11.42467 -12.30801,22.84213 -18.49805,34.24389 -3.24081,5.9766 -6.45451,11.9671 -9.64848,17.96883 -2.82519,5.30652 -5.67104,10.60163 -8.52681,15.89177 -1.16468,2.16176 -2.32416,4.32633 -3.47754,6.49414 -1.54327,2.89241 -3.11204,5.76938 -4.68896,8.64355 -0.65851,1.25237 -0.65851,1.25237 -1.33032,2.53003 -4.43769,7.96055 -11.44933,14.06487 -20.29468,16.65747 -6.62246,0.88632 -11.7185,0.52253 -17.21875,-3.43359 -2.40827,-2.1178 -4.47122,-4.40298 -6.45703,-6.91797 -1.26611,-1.70235 -1.26611,-1.70235 -2.96875,-2.94531 -2.1098,-2.65092 -1.75223,-4.9991 -1.73047,-8.32813 -0.008,-1.16789 -0.0155,-2.33578 -0.0234,-3.53906 0.99462,-9.5757 5.64318,-17.44946 10.21094,-25.77344 0.67251,-1.23838 1.34429,-2.47715 2.01538,-3.7163 1.3788,-2.54388 2.76125,-5.08573 4.14673,-7.62598 3.0534,-5.60208 6.06777,-11.22515 9.08789,-16.84522 1.15724,-2.1486 2.31479,-4.29704 3.47265,-6.44531 3.48988,-6.47571 6.97753,-12.95261 10.46485,-19.42969 1.16665,-2.16667 2.33332,-4.33333 3.5,-6.5 0.5775,-1.0725 1.155,-2.145 1.75,-3.25 20.41666,-37.91666 40.83333,-75.83333 61.25,-113.75 0.57766,-1.07282 1.15532,-2.14564 1.75049,-3.25097 1.16496,-2.16346 2.33,-4.32687 3.49511,-6.49024 2.9434,-5.46549 5.88539,-10.93173 8.82471,-16.39941 5.90519,-10.981474 11.834,-21.948819 17.8186,-32.887212 3.77292,-6.907776 7.49481,-13.842232 11.20453,-20.784058 4.87509,-9.121339 9.75957,-18.237309 14.71906,-27.31311 0.44996,-0.829029 0.89992,-1.658057 1.36352,-2.512207 0.61863,-1.127044 0.61863,-1.127044 1.24976,-2.276856 0.53234,-0.973806 0.53234,-0.973806 1.07544,-1.967285 0.99878,-1.618652 0.99878,-1.618652 2.99878,-3.618652 0.34031,-1.082812 0.34031,-1.082812 0.6875,-2.1875 2.49385,-5.3439742 6.7353,-9.4491738 12.1875,-11.75 8.51674,-2.5778776 14.25626,-0.99684694 22.13277,2.9414063 z"
     fill="#1e7b05"
     id="path1" />
  <path
     d="m 250.50356,99.19581 c 5.24544,4.43465 10.16354,9.12593 15,14 0.75539,0.74637 1.51078,1.49273 2.28906,2.26172 23.94975,24.87089 34.3156,59.53559 34.20069,93.45215 -0.95496,36.70997 -17.12759,69.47982 -42.54444,95.37988 -1.91698,1.74421 -3.88431,3.33424 -5.94531,4.90625 -0.99129,0.7657 -1.98258,1.53141 -3.00391,2.32031 -27.53163,20.73499 -61.35044,30.34049 -95.73047,26.17188 -4.1461,-0.60753 -8.20306,-1.47097 -12.26562,-2.49219 -0.64808,-0.16097 -1.29615,-0.32194 -1.96387,-0.48779 -21.97997,-5.68335 -40.710871,-16.87764 -57.036131,-32.51221 -0.84562,-0.80438 -1.69125,-1.60875 -2.5625,-2.4375 -0.80437,-0.84563 -1.60875,-1.69125 -2.4375,-2.5625 -0.64195,-0.65871 -1.28391,-1.31742 -1.94531,-1.99609 -23.59101,-25.02948 -34.69369,-59.18663 -34.47656,-93.26905 1.13084,-38.03964 17.09351,-71.04661 44.42578,-97.10986 44.886121,-41.436649 116.450011,-43.865973 163.996091,-5.625 z"
     fill="#fefefe"
     id="path2" />
  <path
     d="m 285.01918,70.3755 c 2.52742,2.240565 5.01416,4.516902 7.48437,6.820313 1.10989,1.028672 1.10989,1.028672 2.24219,2.078125 32.15022,30.891672 50.23823,77.312582 51.23267,121.412352 0.26296,41.27411 -11.45525,82.00784 -37.47486,114.50952 -0.67289,0.87656 -1.34578,1.75313 -2.03906,2.65625 -28.1711,35.87332 -69.42007,57.74483 -114.28906,63.94019 -5.8956,0.64797 -11.74516,0.74439 -17.67188,0.71606 -1.88622,-0.008 -1.88622,-0.008 -3.81054,-0.0171 -25.63247,-0.3287 -49.20778,-5.97204 -72.189451,-17.29541 -0.66226,-0.32226 -1.32452,-0.64453 -2.00684,-0.97656 -9.68834,-4.76428 -18.4247,-10.47093 -26.99316,-17.02344 -1.39993,-1.06154 -1.39993,-1.06154 -2.82813,-2.14453 C 30.808809,316.78796 7.6310691,273.91871 1.3304591,228.86743 -4.4154609,180.1964 8.5168391,132.04621 38.828259,93.51172 66.492269,59.050561 106.52937,34.215714 150.89198,28.910158 c 49.60381,-5.063175 96.33144,8.716841 134.1272,41.465342 z m -141.51562,4.820313 c -1.02223,0.204961 -2.04446,0.409922 -3.09766,0.621093 -21.66248,4.694024 -41.020031,17.355758 -56.902341,32.378904 -0.88559,0.80953 -1.77118,1.61907 -2.6836,2.45313 -24.77403,23.47384 -37.73469,57.52273 -38.73828,91.28174 -0.22093,34.67971 11.32694,65.73272 33.42188,92.26513 0.51304,0.6368 1.02609,1.2736 1.55468,1.92969 19.05422,23.17405 50.680431,38.46798 80.245851,41.88062 36.78708,3.17277 70.84974,-7.9224 99.19556,-31.27906 6.41784,-5.62563 11.82474,-11.76291 17.0039,-18.53125 0.66645,-0.83918 1.3329,-1.67836 2.01954,-2.54297 21.53253,-28.07298 29.47146,-64.6376 25.15405,-99.38867 -4.38994,-30.4654 -18.16843,-56.64228 -40.17359,-78.06836 -0.67482,-0.7425 -0.67482,-0.7425 -1.36328,-1.5 -19.94688,-21.382266 -51.8909,-33.403336 -80.63672,-34.499997 -0.69754,-0.02723 -1.39508,-0.05446 -2.11376,-0.08252 -11.38055,-0.384756 -21.8038,0.517693 -32.88623,3.08252 z"
     fill="#1d7605"
     id="path3" />
  <path
     d="m 487.50356,289.19581 c 17.49,0 34.98,0 53,0 0,17.49 0,34.98 0,53 -17.49,0 -34.98,0 -53,0 0,-17.49 0,-34.98 0,-53 z"
     fill="#1d7b04"
     id="path4" />
  <path
     d="m 553.50356,288.19581 c 17.49,0 34.98,0 53,0 0,17.49 0,34.98 0,53 -17.49,0 -34.98,0 -53,0 0,-17.49 0,-34.98 0,-53 z"
     fill="#1d7b04"
     id="path5" />
  <path
     d="m 553.50356,223.19581 c 17.49,0 34.98,0 53,0 0,17.49 0,34.98 0,53 -17.49,0 -34.98,0 -53,0 0,-17.49 0,-34.98 0,-53 z"
     fill="#1d7b04"
     id="path6" />
  <path
     d="m 487.50356,223.19581 c 17.49,0 34.98,0 53,0 0,17.49 0,34.98 0,53 -17.49,0 -34.98,0 -53,0 0,-17.49 0,-34.98 0,-53 z"
     fill="#1d7b04"
     id="path7" />
  <path
     d="m 718.50356,343.19581 c 0.66,0 1.32,0 2,0 0.33,1.65 0.66,3.3 1,5 -2.49065,0.68708 -4.37886,1 -7,1 1.27396,-2.03833 2.61062,-4.03852 4,-6 z"
     fill="#cbe0c5"
     id="path8" />
</svg>
