<?xml version="1.0" encoding="UTF-8"?>
<svg version="1.1" xmlns="http://www.w3.org/2000/svg" width="1198" height="478">
<path d="M0 0 C8.58440341 6.03352197 11.63612663 14.0257038 15.71875 23.375 C19.46335633 31.87046282 23.38461862 40.27223815 27.38043213 48.65197754 C28.94556052 51.93445529 30.50547397 55.2194034 32.06570435 58.50421143 C32.87006107 60.19763893 33.6746464 61.89095786 34.47946167 63.58416748 C38.38194188 71.79642293 42.25689744 80.02150839 46.125 88.25 C46.78319519 89.64974332 47.44139832 91.0494829 48.09960938 92.44921875 C49.41067643 95.23753874 50.72150987 98.02596842 52.03222656 100.81445312 C55.0189087 107.16797432 58.00887401 113.51995052 60.99853516 119.87207031 C61.99783095 121.99539116 62.99698611 124.11877812 63.99609375 126.2421875 C67.01331348 132.65458683 70.0310865 139.06672331 73.05134583 145.47769165 C79.70397842 159.59905721 86.34615423 173.72491015 92.9375 187.875 C99.11977089 201.14638111 105.36681214 214.38671319 111.6239624 227.6229248 C111.98137512 228.37900024 112.33878784 229.13507568 112.70703125 229.9140625 C113.0646051 230.67046021 113.42217896 231.42685791 113.79058838 232.20617676 C117.55681392 240.17492118 121.31061462 248.14949623 125.0625 256.125 C125.71630279 257.51448841 126.37011137 258.90397409 127.02392578 260.29345703 C130.11911576 266.87203518 133.21246187 273.4514749 136.30296326 280.03225708 C137.76590475 283.14705137 139.22957689 286.26150204 140.69332886 289.37591553 C141.38813615 290.85478652 142.08258426 292.33382633 142.77664185 293.81304932 C146.10856375 300.91420086 149.44139952 308.00860814 153 315 C153.45101074 314.12770752 153.45101074 314.12770752 153.91113281 313.23779297 C159.91970099 301.63167355 166.00564243 290.0766384 172.29052734 278.61767578 C176.36355212 271.18561739 180.37860153 263.72350031 184.375 256.25 C185.65228852 253.86194962 186.92963565 251.4739306 188.20703125 249.0859375 C188.52336517 248.49452469 188.8396991 247.90311188 189.1656189 247.29377747 C194.17879901 237.92419339 199.22482121 228.57224995 204.26611328 219.21777344 C206.59444197 214.89682552 208.92142656 210.57515452 211.24829102 206.25341797 C212.41402753 204.08831626 213.57987998 201.92327696 214.74584961 199.75830078 C217.68918686 194.29298478 220.63107729 188.82689828 223.5703125 183.359375 C228.99805915 173.26577514 234.43748303 163.17942995 239.9375 153.125 C245.43417586 143.07414596 250.84593773 132.978457 256.2489624 122.8770752 C256.72320648 121.99046204 256.72320648 121.99046204 257.20703125 121.0859375 C257.5233551 120.49453979 257.83967896 119.90314209 258.16558838 119.29382324 C263.17880175 109.92423618 268.22481251 100.5722661 273.26611328 91.21777344 C275.59444197 86.89682552 277.92142656 82.57515452 280.24829102 78.25341797 C281.41402753 76.08831626 282.57987998 73.92327696 283.74584961 71.75830078 C286.68918686 66.29298478 289.63107729 60.82689828 292.5703125 55.359375 C298.23168084 44.83090365 303.90485846 34.30918143 309.625 23.8125 C310.10984863 22.92208008 310.59469727 22.03166016 311.09423828 21.11425781 C312.39050445 18.73967768 313.69397154 16.36922094 315 14 C315.3705249 13.31824707 315.7410498 12.63649414 316.12280273 11.93408203 C319.84651464 5.20177917 324.62321331 1.29768766 332 -1 C338.60574289 -1.72188508 345.26013824 -1.64510808 351 2 C358.19321927 7.9354658 361.87546008 16.06926327 365.73779297 24.32421875 C367.18655757 27.39548762 368.67149526 30.44787094 370.16015625 33.5 C376.52044352 46.55697901 382.74018391 59.67204044 388.82958984 72.85791016 C393.43068532 82.80886104 398.11239585 92.72047323 402.8125 102.625 C404.35817742 105.88276293 405.90377462 109.14056389 407.44921875 112.3984375 C407.83124451 113.20374405 408.21327026 114.0090506 408.60687256 114.83876038 C414.1112182 126.44645914 419.57331469 138.07405245 425.03778076 149.70056152 C427.38795189 154.70028491 429.74205289 159.69814651 432.09765625 164.6953125 C438.22543351 177.69740565 444.33912261 190.70490057 450.375 203.75 C455.46060905 214.73721052 460.62352153 225.68632401 465.8125 236.625 C466.193992 237.42923401 466.57548401 238.23346802 466.96853638 239.06207275 C467.35024994 239.86674988 467.7319635 240.671427 468.12524414 241.50048828 C468.89601014 243.12531886 469.66676211 244.75015609 470.4375 246.375 C470.81889633 247.17904266 471.20029266 247.98308533 471.59324646 248.81149292 C474.15092166 254.20510772 476.70337019 259.60116123 479.25 265 C479.59056931 265.72193542 479.93113861 266.44387085 480.2820282 267.18768311 C481.95234886 270.73098564 483.61830738 274.27625187 485.27661133 277.82519531 C485.91996047 279.20122993 486.56343265 280.57720704 487.20703125 281.953125 C487.67759697 282.95922821 487.67759697 282.95922821 488.15766907 283.98565674 C490.04206716 288.00062576 491.96644254 291.99329229 493.92729187 295.97146606 C495.17276 298.50336528 496.40097424 301.04343496 497.62728882 303.58465576 C498.46587323 305.30498983 499.32876772 307.01340911 500.19262695 308.72119141 C504.24950146 317.16722642 505.52362354 324.62250514 502.9375 333.75 C497.95760021 342.1033803 492.49457964 347.20672286 483 350 C476.0780262 351.17779749 470.38888381 350.13031017 464.2890625 346.6640625 C458.54605141 342.48910905 455.25079087 337.43611376 453.2578125 330.66796875 C450.76457162 322.91102232 447.27025505 315.70021197 443.75 308.375 C443.03832926 306.88055729 442.32740769 305.38575762 441.6171875 303.890625 C440.14545572 300.79386633 438.67055811 297.69864654 437.19335938 294.60449219 C434.09877348 288.11622938 431.04375528 281.60941875 427.98791504 275.10284424 C426.32710699 271.56770155 424.66339878 268.0339242 423 264.5 C422.33331962 263.08333979 421.66665295 261.66667312 421 260.25 C420.67 259.54875 420.34 258.8475 420 258.125 C368.99999999 149.74999997 368.99999999 149.74999997 368.00021362 147.6254425 C367.33284663 146.20729529 366.66546787 144.78915362 365.99807739 143.37101746 C364.34202956 139.85204828 362.68617954 136.3329863 361.03076172 132.8137207 C357.90439021 126.16789644 354.77591154 119.52308518 351.64093018 112.88131714 C350.15848597 109.74031611 348.67710191 106.59881563 347.19580078 103.45727539 C346.48864925 101.95832697 345.78097704 100.45962405 345.07275391 98.96118164 C344.09145823 96.88489501 343.11195207 94.80777283 342.1328125 92.73046875 C341.29580811 90.95772583 341.29580811 90.95772583 340.44189453 89.14916992 C339.20955285 86.45767394 338.06751285 83.76017211 337 81 C334.34092717 84.30691967 332.36662719 87.87066158 330.41015625 91.6171875 C329.89960442 92.58415054 329.89960442 92.58415054 329.3787384 93.57064819 C328.64954449 94.95230161 327.92184117 96.33474257 327.19549561 97.71789551 C325.27700441 101.370501 323.34706503 105.01705011 321.41796875 108.6640625 C321.03501648 109.38863647 320.65206421 110.11321045 320.25750732 110.85974121 C317.17687559 116.68237541 314.0441359 122.47503234 310.875 128.25 C306.41125084 136.39171886 302.0040942 144.5624466 297.625 152.75 C297.30884735 153.3410553 296.9926947 153.9321106 296.66696167 154.54107666 C296.3507486 155.13225281 296.03453552 155.72342896 295.70874023 156.33251953 C295.07015802 157.52637162 294.43156753 158.72021927 293.79296875 159.9140625 C293.31850563 160.80111374 293.31850563 160.80111374 292.8344574 161.70608521 C287.82124107 171.07570932 282.77520365 180.42770392 277.73388672 189.78222656 C274.82129735 195.18745437 271.9107577 200.59378568 269 206 C267.83334304 208.16667189 266.66667637 210.33333856 265.5 212.5 C264.63375 214.10875 264.63375 214.10875 263.75 215.75 C252.66666667 236.33333333 241.58333333 256.91666667 230.5 277.5 C229.92233887 278.57282227 229.34467773 279.64564453 228.74951172 280.75097656 C227.58455033 282.91442985 226.41951145 285.07784141 225.25439453 287.24121094 C221.71583564 293.81183105 218.17957518 300.38367653 214.64746094 306.95776367 C213.47432638 309.13678841 212.29793949 311.31406558 211.11816406 313.48950195 C208.28243291 318.72172115 205.49385304 323.96811506 202.8046875 329.27734375 C202.28922363 330.27411133 201.77375977 331.27087891 201.24267578 332.29785156 C200.28585883 334.150139 199.34751983 336.01215904 198.43310547 337.88574219 C194.1754215 346.03046704 187.66168178 350.97067604 179 354 C171.42995809 354.83357696 164.16039937 354.89603793 158 350 C155.47822854 347.46856658 153.19101006 344.82092546 151 342 C150.34 342.721875 149.68 343.44375 149 344.1875 C143.64679852 349.55599634 137.51667506 353.10567404 129.875 353.3125 C122.75806773 353.23718855 117.65770752 351.18522618 112.1875 346.6875 C108.49156604 342.14678113 106.21745959 337.78907265 104.36328125 332.29296875 C101.53561114 324.42410419 97.85856171 316.96970988 94.25 309.4375 C93.49106018 307.84352712 92.73268861 306.24928357 91.97485352 304.65478516 C90.41554612 301.374623 88.85419392 298.09544641 87.29150391 294.81689453 C84.14556509 288.21077016 81.03198576 281.58948985 77.92053223 274.96707153 C76.6006281 272.15807527 75.27940981 269.34969794 73.95822144 266.54130554 C72.96664767 264.43352209 71.97525076 262.32565554 70.98388672 260.21777344 C67.99062375 253.85370223 64.9957466 247.49039063 62.00100708 241.12701416 C60.33394012 237.58470651 58.66697517 234.04235085 57 230.5 C56.33333382 229.0833331 55.66666716 227.66666644 55 226.25 C18.99999999 149.74999999 18.99999999 149.74999999 18.00018311 147.62538147 C17.33291392 146.20743955 16.66563689 144.78950132 15.99835205 143.37156677 C14.34083977 139.84944159 12.68345997 136.32725421 11.02636719 132.80493164 C7.91745762 126.19698707 4.80720589 119.58968367 1.69250488 112.98446655 C0.2297271 109.88221276 -1.23233111 106.77962008 -2.69433594 103.67700195 C-3.38798762 102.20547863 -4.08198745 100.73411936 -4.77636719 99.26293945 C-8.2629239 91.87577608 -11.72510955 84.48428246 -15 77 C-19.63121592 84.51512327 -23.86207344 92.20434936 -28 100 C-28.65781021 101.23437831 -29.31593836 102.46858723 -29.97436523 103.70263672 C-30.98741493 105.60133973 -32.00031933 107.50011788 -33.01231384 109.39938354 C-36.34386699 115.65123294 -39.70096745 121.88922388 -43.0625 128.125 C-43.63548828 129.18847656 -44.20847656 130.25195312 -44.79882812 131.34765625 C-45.9544822 133.49257102 -47.11024357 135.63742799 -48.26611328 137.78222656 C-51.17870265 143.18745437 -54.0892423 148.59378568 -57 154 C-58.16665696 156.16667189 -59.33332363 158.33333856 -60.5 160.5 C-61.0775 161.5725 -61.655 162.645 -62.25 163.75 C-92.875 220.625 -92.875 220.625 -123.5 277.5 C-124.07758057 278.57266113 -124.65516113 279.64532227 -125.25024414 280.75048828 C-126.41605818 282.91554825 -127.581911 285.08058734 -128.74780273 287.24560547 C-132.2674057 293.78151948 -135.78635855 300.31778078 -139.30175781 306.85595703 C-140.46872889 309.02258802 -141.6386181 311.18764999 -142.81152344 313.35107422 C-145.74421244 318.76609263 -148.62484262 324.19902719 -151.41796875 329.6875 C-151.97798584 330.7688623 -152.53800293 331.85022461 -153.11499023 332.96435547 C-154.16570854 334.99550362 -155.19931668 337.03564517 -156.21118164 339.08642578 C-160.60211501 347.49253489 -166.85208646 353.90727234 -176 357 C-183.58792126 357.83554575 -190.81681646 357.88146069 -197 353 C-202.58111859 347.59605978 -206.37034175 342.59189581 -206.99291992 334.71826172 C-207.01861465 324.85325682 -202.42363496 316.23715723 -197.6875 307.875 C-196.42021086 305.58092914 -195.15329421 303.28665247 -193.88671875 300.9921875 C-193.23383968 299.81983185 -192.58068235 298.64763112 -191.92724609 297.47558594 C-188.89789482 292.01246904 -185.95146864 286.50545559 -183 281 C-181.83377063 278.83309792 -180.6671029 276.66643171 -179.5 274.5 C-178.63375 272.89125 -178.63375 272.89125 -177.75 271.25 C-161.125 240.375 -161.125 240.375 -144.5 209.5 C-143.92233887 208.42717773 -143.34467773 207.35435547 -142.74951172 206.24902344 C-141.58455033 204.08557015 -140.41951145 201.92215859 -139.25439453 199.75878906 C-136.31099563 194.29329969 -133.36900883 188.82705848 -130.4296875 183.359375 C-125.00194085 173.26577514 -119.56251697 163.17942995 -114.0625 153.125 C-108.56582414 143.07414596 -103.15406227 132.978457 -97.7510376 122.8770752 C-97.43487488 122.28599976 -97.11871216 121.69492432 -96.79296875 121.0859375 C-96.4766449 120.49453979 -96.16032104 119.90314209 -95.83441162 119.29382324 C-90.82119825 109.92423618 -85.77518749 100.5722661 -80.73388672 91.21777344 C-77.82129735 85.81254563 -74.9107577 80.40621432 -72 75 C-70.83334304 72.83332811 -69.66667637 70.66666144 -68.5 68.5 C-67.9225 67.4275 -67.345 66.355 -66.75 65.25 C-64.125 60.375 -64.125 60.375 -61.5 55.5 C-60.92169434 54.42588867 -60.34338867 53.35177734 -59.74755859 52.24511719 C-58.58941873 50.09451715 -57.43089471 47.94412394 -56.27197266 45.79394531 C-53.54707406 40.73725832 -50.82601699 35.67861901 -48.11883545 30.61242676 C-47.15829939 28.81532595 -46.19652573 27.01889302 -45.234375 25.22265625 C-44.02617496 22.966165 -42.82031245 20.70842004 -41.6171875 18.44921875 C-32.36049493 1.18024746 -32.36049493 1.18024746 -23.25 -3.375 C-14.74293063 -5.01097488 -7.45502966 -4.62867226 0 0 Z " fill="#207D08" transform="translate(632,51)"/>
<path d="M0 0 C1.83884766 0.66128906 1.83884766 0.66128906 3.71484375 1.3359375 C24.13077676 9.09099285 42.61003273 20.38994458 58.38671875 35.52734375 C60.26744595 37.3068659 62.13184944 38.96213027 64.12890625 40.59765625 C94.66288301 66.14649395 112.1145106 111.46713099 116 150 C117.60026966 184.64528625 113.38242147 216.60670658 98 248 C97.67241699 248.66902344 97.34483398 249.33804687 97.00732422 250.02734375 C86.92138947 270.3298731 72.61485929 289.64166931 55 304 C54.01644531 304.82113281 53.03289062 305.64226562 52.01953125 306.48828125 C14.95966295 336.91039799 -30.19248616 348.82680897 -77.62207031 344.68359375 C-89.75693417 343.17178126 -101.5179449 340.16422359 -113 336 C-114.22589844 335.55914062 -115.45179688 335.11828125 -116.71484375 334.6640625 C-137.13077676 326.90900715 -155.61003273 315.61005542 -171.38671875 300.47265625 C-173.98066092 297.94998566 -173.98066092 297.94998566 -176.89453125 295.68359375 C-190.5474547 284.4442768 -201.06714823 267.59660059 -209 252 C-209.34369629 251.33564941 -209.68739258 250.67129883 -210.04150391 249.98681641 C-231.54698755 208.03548111 -235.3899056 158.14414897 -221.48925781 113.16333008 C-218.63839027 104.48361311 -215.0017725 96.20382621 -211 88 C-210.68836914 87.35224609 -210.37673828 86.70449219 -210.05566406 86.03710938 C-201.84069571 69.15513208 -190.67219163 54.65599711 -177.42578125 41.4296875 C-175.95086124 39.95239242 -174.49364678 38.45674654 -173.0703125 36.9296875 C-130.38947797 -8.15087267 -57.05332497 -20.69166187 0 0 Z M-154 79 C-173.80114717 101.98465873 -185.67966614 131.67358169 -187 162 C-187.04125 162.91652344 -187.0825 163.83304688 -187.125 164.77734375 C-187.82552344 196.69494319 -177.27254536 229.88837219 -156 254 C-154.95392578 255.22589844 -154.95392578 255.22589844 -153.88671875 256.4765625 C-135.41613087 277.67016778 -112.22530426 291.31357813 -85 298 C-84.07574219 298.23332031 -83.15148437 298.46664063 -82.19921875 298.70703125 C-54.28807063 304.7407009 -25.32884847 299.36025684 0 287 C0.99515625 286.51660156 1.9903125 286.03320312 3.015625 285.53515625 C32.71936223 270.21651462 54.70786216 242.08302813 65.24780273 210.73510742 C69.02299151 198.78646597 71.45448266 186.52985133 72 174 C72.061875 172.62521484 72.061875 172.62521484 72.125 171.22265625 C72.94582352 133.82388445 58.40173253 100.01303646 33 73 C32.4740625 72.40960938 31.948125 71.81921875 31.40625 71.2109375 C9.41570846 47.53744635 -23.47170932 36.80219041 -54.90625 34.81640625 C-92.76882557 33.84703308 -128.90217109 51.17661501 -154 79 Z " fill="#1F7707" transform="translate(293,84)"/>
<path d="M0 0 C17.49 0 34.98 0 53 0 C53 17.49 53 34.98 53 53 C35.51 53 18.02 53 0 53 C0 35.51 0 18.02 0 0 Z " fill="#1D7B04" transform="translate(551,336)"/>
<path d="M0 0 C17.49 0 34.98 0 53 0 C53 17.49 53 34.98 53 53 C35.51 53 18.02 53 0 53 C0 35.51 0 18.02 0 0 Z " fill="#1D7B04" transform="translate(617,335)"/>
<path d="M0 0 C17.49 0 34.98 0 53 0 C53 17.49 53 34.98 53 53 C35.51 53 18.02 53 0 53 C0 35.51 0 18.02 0 0 Z " fill="#1D7B04" transform="translate(617,270)"/>
<path d="M0 0 C17.49 0 34.98 0 53 0 C53 17.49 53 34.98 53 53 C35.51 53 18.02 53 0 53 C0 35.51 0 18.02 0 0 Z " fill="#1D7B04" transform="translate(551,270)"/>
<path d="M0 0 C0.33 0.99 0.66 1.98 1 3 C-4.28 8.28 -9.56 13.56 -15 19 C-15.33 18.01 -15.66 17.02 -16 16 C-11.03093773 10.1719243 -5.90436923 4.8836671 0 0 Z " fill="#2D5520" transform="translate(124,117)"/>
<path d="M0 0 C3.86372194 0.55779084 6.32330495 1.62670526 9.5 3.875 C11.99516256 5.61619858 14.4166429 7.23808166 17.0625 8.75 C17.701875 9.1625 18.34125 9.575 19 10 C19 10.66 19 11.32 19 12 C14.46463751 10.41305672 10.68503997 8.0435173 6.6875 5.4375 C6.04232422 5.02564453 5.39714844 4.61378906 4.73242188 4.18945312 C3.13495169 3.15659145 1.56465902 2.08192254 0 1 C0 0.67 0 0.34 0 0 Z " fill="#3D4B36" transform="translate(136,396)"/>
<path d="M0 0 C3.7952131 1.49097658 5.61042731 3.75700849 8 7 C5 7 5 7 2.3125 4.625 C0 2 0 2 0 0 Z " fill="#39582E" transform="translate(141,344)"/>
<path d="M0 0 C3.7952131 1.49097658 5.61042731 3.75700849 8 7 C5 7 5 7 2.3125 4.625 C0 2 0 2 0 0 Z " fill="#39572E" transform="translate(322,152)"/>
<path d="M0 0 C3.99500618 1.3697164 6.80009492 3.25722422 10 6 C8.68 6 7.36 6 6 6 C6 5.34 6 4.68 6 4 C4.02 3.34 2.04 2.68 0 2 C0 1.34 0 0.68 0 0 Z " fill="#43523C" transform="translate(318,96)"/>
</svg>
