<svg xmlns="http://www.w3.org/2000/svg" viewBox="0 0 720 720" role="img">
  <defs>
    <linearGradient id="bg" x1="0" y1="0" x2="1" y2="1"><stop stop-color="#F7FBF7"/><stop offset="1" stop-color="#E7F3E9"/></linearGradient>
    <linearGradient id="accent" x1="0" y1="0" x2="1" y2="1"><stop stop-color="#2F7D32"/><stop offset="1" stop-color="#9AD7A2"/></linearGradient>
    <filter id="shadow" x="-30%" y="-30%" width="160%" height="160%"><feDropShadow dx="0" dy="18" stdDeviation="22" flood-color="#163A20" flood-opacity=".14"/></filter>
  </defs>
  <rect width="720" height="720" rx="80" fill="url(#bg)"/>
  <circle cx="570" cy="140" r="110" fill="#D9EDDC" opacity=".75"/>
  <circle cx="125" cy="585" r="85" fill="#FFFFFF" opacity=".9"/>
  <g filter="url(#shadow)">
  <rect x="235" y="132" width="250" height="455" rx="56" fill="#fff"/>
  <circle cx="360" cy="225" r="72" fill="#18201A"/>
  <circle cx="360" cy="225" r="48" fill="url(#accent)"/>
  <circle cx="360" cy="225" r="12" fill="#fff"/>
  <g fill="#DDEAE0"><circle cx="280" cy="335" r="5"/><circle cx="303" cy="335" r="5"/><circle cx="326" cy="335" r="5"/><circle cx="349" cy="335" r="5"/><circle cx="372" cy="335" r="5"/><circle cx="395" cy="335" r="5"/><circle cx="418" cy="335" r="5"/><circle cx="441" cy="335" r="5"/><circle cx="280" cy="363" r="5"/><circle cx="303" cy="363" r="5"/><circle cx="326" cy="363" r="5"/><circle cx="349" cy="363" r="5"/><circle cx="372" cy="363" r="5"/><circle cx="395" cy="363" r="5"/><circle cx="418" cy="363" r="5"/><circle cx="441" cy="363" r="5"/><circle cx="280" cy="391" r="5"/><circle cx="303" cy="391" r="5"/><circle cx="326" cy="391" r="5"/><circle cx="349" cy="391" r="5"/><circle cx="372" cy="391" r="5"/><circle cx="395" cy="391" r="5"/><circle cx="418" cy="391" r="5"/><circle cx="441" cy="391" r="5"/><circle cx="280" cy="419" r="5"/><circle cx="303" cy="419" r="5"/><circle cx="326" cy="419" r="5"/><circle cx="349" cy="419" r="5"/><circle cx="372" cy="419" r="5"/><circle cx="395" cy="419" r="5"/><circle cx="418" cy="419" r="5"/><circle cx="441" cy="419" r="5"/><circle cx="280" cy="447" r="5"/><circle cx="303" cy="447" r="5"/><circle cx="326" cy="447" r="5"/><circle cx="349" cy="447" r="5"/><circle cx="372" cy="447" r="5"/><circle cx="395" cy="447" r="5"/><circle cx="418" cy="447" r="5"/><circle cx="441" cy="447" r="5"/><circle cx="280" cy="475" r="5"/><circle cx="303" cy="475" r="5"/><circle cx="326" cy="475" r="5"/><circle cx="349" cy="475" r="5"/><circle cx="372" cy="475" r="5"/><circle cx="395" cy="475" r="5"/><circle cx="418" cy="475" r="5"/><circle cx="441" cy="475" r="5"/><circle cx="280" cy="503" r="5"/><circle cx="303" cy="503" r="5"/><circle cx="326" cy="503" r="5"/><circle cx="349" cy="503" r="5"/><circle cx="372" cy="503" r="5"/><circle cx="395" cy="503" r="5"/><circle cx="418" cy="503" r="5"/><circle cx="441" cy="503" r="5"/><circle cx="280" cy="531" r="5"/><circle cx="303" cy="531" r="5"/><circle cx="326" cy="531" r="5"/><circle cx="349" cy="531" r="5"/><circle cx="372" cy="531" r="5"/><circle cx="395" cy="531" r="5"/><circle cx="418" cy="531" r="5"/><circle cx="441" cy="531" r="5"/></g>
  <rect x="285" y="545" width="150" height="12" rx="6" fill="#CFE2D2"/>
</g>
  <g opacity=".55" fill="#2F7D32"><circle cx="590" cy="570" r="8"/><circle cx="615" cy="570" r="8"/><circle cx="640" cy="570" r="8"/></g>
</svg>