<svg xmlns="http://www.w3.org/2000/svg" viewBox="0 0 720 720" role="img">
  <defs>
    <linearGradient id="bg" x1="0" y1="0" x2="1" y2="1"><stop stop-color="#F7FBF7"/><stop offset="1" stop-color="#E7F3E9"/></linearGradient>
    <linearGradient id="accent" x1="0" y1="0" x2="1" y2="1"><stop stop-color="#2F7D32"/><stop offset="1" stop-color="#9AD7A2"/></linearGradient>
    <filter id="shadow" x="-30%" y="-30%" width="160%" height="160%"><feDropShadow dx="0" dy="18" stdDeviation="22" flood-color="#163A20" flood-opacity=".14"/></filter>
  </defs>
  <rect width="720" height="720" rx="80" fill="url(#bg)"/>
  <circle cx="570" cy="140" r="110" fill="#D9EDDC" opacity=".75"/>
  <circle cx="125" cy="585" r="85" fill="#FFFFFF" opacity=".9"/>
  <g filter="url(#shadow)">
  <path d="M210 350c0-110 82-195 150-195s150 85 150 195v90c0 82-67 147-150 147s-150-65-150-147v-90Z" fill="#fff"/>
  <ellipse cx="360" cy="342" rx="112" ry="142" fill="#E8F3EA"/>
  <ellipse cx="360" cy="337" rx="72" ry="100" fill="#fff"/>
  <rect x="493" y="278" width="58" height="145" rx="23" fill="url(#accent)"/>
  <circle cx="522" cy="312" r="8" fill="#fff"/><circle cx="522" cy="344" r="8" fill="#fff"/><rect x="510" y="378" width="24" height="8" rx="4" fill="#fff"/>
</g>
  <g opacity=".55" fill="#2F7D32"><circle cx="590" cy="570" r="8"/><circle cx="615" cy="570" r="8"/><circle cx="640" cy="570" r="8"/></g>
</svg>