<svg xmlns="http://www.w3.org/2000/svg" viewBox="0 0 720 720" role="img">
  <defs>
    <linearGradient id="bg" x1="0" y1="0" x2="1" y2="1"><stop stop-color="#F7FBF7"/><stop offset="1" stop-color="#E7F3E9"/></linearGradient>
    <linearGradient id="accent" x1="0" y1="0" x2="1" y2="1"><stop stop-color="#2F7D32"/><stop offset="1" stop-color="#9AD7A2"/></linearGradient>
    <filter id="shadow" x="-30%" y="-30%" width="160%" height="160%"><feDropShadow dx="0" dy="18" stdDeviation="22" flood-color="#163A20" flood-opacity=".14"/></filter>
  </defs>
  <rect width="720" height="720" rx="80" fill="url(#bg)"/>
  <circle cx="570" cy="140" r="110" fill="#D9EDDC" opacity=".75"/>
  <circle cx="125" cy="585" r="85" fill="#FFFFFF" opacity=".9"/>
  <g filter="url(#shadow)">
  <rect x="190" y="155" width="340" height="410" rx="60" fill="#fff"/>
  <path d="M360 250c-92 0-130 62-130 126 0 99 78 159 130 174 52-15 130-75 130-174 0-64-38-126-130-126Z" fill="url(#accent)" opacity=".9"/>
  <path d="M360 300c-36 0-63 30-63 67 0 52 39 90 63 100 24-10 63-48 63-100 0-37-27-67-63-67Z" fill="#fff" opacity=".95"/>
  <circle cx="337" cy="355" r="8" fill="#2F7D32"/><circle cx="383" cy="355" r="8" fill="#2F7D32"/>
  <path d="M335 397c17 14 33 14 50 0" fill="none" stroke="#2F7D32" stroke-width="10" stroke-linecap="round"/>
</g>
  <g opacity=".55" fill="#2F7D32"><circle cx="590" cy="570" r="8"/><circle cx="615" cy="570" r="8"/><circle cx="640" cy="570" r="8"/></g>
</svg>