<svg xmlns="http://www.w3.org/2000/svg" viewBox="0 0 720 720" role="img">
  <defs>
    <linearGradient id="bg" x1="0" y1="0" x2="1" y2="1"><stop stop-color="#F7FBF7"/><stop offset="1" stop-color="#E7F3E9"/></linearGradient>
    <linearGradient id="accent" x1="0" y1="0" x2="1" y2="1"><stop stop-color="#2F7D32"/><stop offset="1" stop-color="#9AD7A2"/></linearGradient>
    <filter id="shadow" x="-30%" y="-30%" width="160%" height="160%"><feDropShadow dx="0" dy="18" stdDeviation="22" flood-color="#163A20" flood-opacity=".14"/></filter>
  </defs>
  <rect width="720" height="720" rx="80" fill="url(#bg)"/>
  <circle cx="570" cy="140" r="110" fill="#D9EDDC" opacity=".75"/>
  <circle cx="125" cy="585" r="85" fill="#FFFFFF" opacity=".9"/>
  <g filter="url(#shadow)">
  <rect x="245" y="120" width="230" height="460" rx="42" fill="#fff"/>
  <rect x="265" y="145" width="190" height="120" rx="28" fill="url(#accent)" opacity=".9"/>
  <rect x="295" y="300" width="130" height="18" rx="9" fill="#D7E8DA"/>
  <path d="M360 316v54" stroke="#2F7D32" stroke-width="16" stroke-linecap="round"/>
  <path d="M360 370c-28 34-34 48-34 65 0 21 15 37 34 37s34-16 34-37c0-17-6-31-34-65Z" fill="#67B978"/>
  <rect x="285" y="500" width="150" height="18" rx="9" fill="#E9F2EA"/>
</g>
  <g opacity=".55" fill="#2F7D32"><circle cx="590" cy="570" r="8"/><circle cx="615" cy="570" r="8"/><circle cx="640" cy="570" r="8"/></g>
</svg>